<?xml version="1.0" encoding="utf-8"?>
<!-- Generator: Adobe Illustrator 15.0.2, SVG Export Plug-In  -->
<!DOCTYPE svg PUBLIC "-//W3C//DTD SVG 1.1//EN" "http://www.w3.org/Graphics/SVG/1.1/DTD/svg11.dtd" [
	<!ENTITY ns_flows "http://ns.adobe.com/Flows/1.0/">
]>
<svg version="1.1"
	 xmlns="http://www.w3.org/2000/svg" xmlns:xlink="http://www.w3.org/1999/xlink" xmlns:a="http://ns.adobe.com/AdobeSVGViewerExtensions/3.0/"
	 x="0px" y="0px" width="54px" height="54px" viewBox="0 0 54 54" overflow="visible" enable-background="new 0 0 54 54"
	 xml:space="preserve">
<defs>
</defs>
<path fill="#EC1C24" d="M27,8.012c14.195,0,18.988,4.792,18.988,18.988c0,14.195-4.793,18.988-18.988,18.988
	C12.803,45.988,8.012,41.195,8.012,27C8.012,12.804,12.803,8.012,27,8.012"/>
<rect fill="none" width="54" height="54"/>
<linearGradient id="SVGID_1_" gradientUnits="userSpaceOnUse" x1="27.0005" y1="46.6865" x2="27.0005" y2="7.2423">
	<stop  offset="0" style="stop-color:#FFFFFF;stop-opacity:0.3"/>
	<stop  offset="1" style="stop-color:#FFFFFF;stop-opacity:0"/>
</linearGradient>
<path fill="url(#SVGID_1_)" d="M27,8.012c14.195,0,18.988,4.792,18.988,18.988c0,14.195-4.793,18.988-18.988,18.988
	C12.803,45.988,8.012,41.195,8.012,27C8.012,12.804,12.803,8.012,27,8.012 M27,6.895C12.107,6.895,6.895,12.107,6.895,27
	c0,14.896,5.213,20.105,20.105,20.105c14.891,0,20.105-5.209,20.105-20.105C47.105,12.107,41.891,6.895,27,6.895L27,6.895z"/>
<linearGradient id="SVGID_2_" gradientUnits="userSpaceOnUse" x1="26.9995" y1="8.645" x2="26.9995" y2="45.6991">
	<stop  offset="0" style="stop-color:#000000"/>
	<stop  offset="1" style="stop-color:#000000;stop-opacity:0"/>
</linearGradient>
<path opacity="0.1" fill="url(#SVGID_2_)" d="M27,8.012C12.805,8.012,8.012,12.804,8.012,27c0,14.195,4.793,18.988,18.988,18.988
	c14.197,0,18.988-4.793,18.988-18.988C45.988,12.804,41.197,8.012,27,8.012z M27,44.871C13.473,44.871,9.129,40.527,9.129,27
	C9.129,13.471,13.473,9.129,27,9.129c13.529,0,17.871,4.342,17.871,17.871C44.871,40.527,40.529,44.871,27,44.871z"/>
<linearGradient id="SVGID_3_" gradientUnits="userSpaceOnUse" x1="26.9995" y1="8.645" x2="26.9995" y2="45.6991">
	<stop  offset="0" style="stop-color:#000000"/>
	<stop  offset="1" style="stop-color:#000000;stop-opacity:0"/>
</linearGradient>
<path opacity="0.05" fill="url(#SVGID_3_)" d="M27,8.012C12.805,8.012,8.012,12.804,8.012,27c0,14.195,4.793,18.988,18.988,18.988
	c14.197,0,18.988-4.793,18.988-18.988C45.988,12.804,41.197,8.012,27,8.012z M27,43.754c-12.839,0-16.754-3.916-16.754-16.754
	c0-12.84,3.915-16.754,16.754-16.754c12.84,0,16.754,3.914,16.754,16.754C43.754,39.838,39.84,43.754,27,43.754z"/>
<linearGradient id="SVGID_4_" gradientUnits="userSpaceOnUse" x1="26.9995" y1="8.645" x2="26.9995" y2="45.6991">
	<stop  offset="0" style="stop-color:#000000"/>
	<stop  offset="1" style="stop-color:#000000;stop-opacity:0"/>
</linearGradient>
<path opacity="0.03" fill="url(#SVGID_4_)" d="M27,8.012C12.805,8.012,8.012,12.804,8.012,27c0,14.195,4.793,18.988,18.988,18.988
	c14.197,0,18.988-4.793,18.988-18.988C45.988,12.804,41.197,8.012,27,8.012z M27,42.637c-12.275,0-15.638-3.361-15.638-15.637
	S14.725,11.363,27,11.363S42.637,14.725,42.637,27S39.275,42.637,27,42.637z"/>
<path opacity="0.5" d="M30.248,27.512l7.143-7.144c0.356-0.358,0.356-0.942,0-1.299l-1.95-1.948c-0.358-0.359-0.938-0.359-1.296,0
	L27,24.264l-7.141-7.143c-0.36-0.359-0.941-0.359-1.3,0l-1.948,1.948c-0.361,0.356-0.361,0.94,0,1.299l7.142,7.144l-7.142,7.139
	c-0.361,0.357-0.361,0.939,0,1.299l1.948,1.949c0.358,0.361,0.939,0.361,1.3,0L27,30.756l7.145,7.143
	c0.357,0.361,0.938,0.361,1.296,0l1.95-1.949c0.356-0.359,0.356-0.941,0-1.299L30.248,27.512z"/>
<path opacity="0.15" enable-background="new    " d="M30.248,26.49l7.143-7.144c0.357-0.358,0.357-0.942,0-1.299L35.441,16.1
	c-0.359-0.358-0.939-0.358-1.296,0l-7.145,7.143L19.859,16.1c-0.359-0.358-0.939-0.358-1.299,0l-1.949,1.948
	c-0.36,0.356-0.36,0.94,0,1.299l7.143,7.144l-7.143,7.141c-0.36,0.357-0.36,0.939,0,1.297l1.949,1.947
	c0.359,0.363,0.939,0.363,1.299,0l7.142-7.141l7.145,7.141c0.356,0.363,0.937,0.363,1.296,0l1.949-1.947
	c0.357-0.357,0.357-0.939,0-1.297L30.248,26.49z"/>
<path fill="#FFFFFF" d="M30.248,26.49l7.143-7.144c0.357-0.358,0.357-0.942,0-1.299L35.441,16.1c-0.359-0.358-0.939-0.358-1.296,0
	l-7.145,7.143L19.859,16.1c-0.359-0.358-0.939-0.358-1.299,0l-1.949,1.948c-0.36,0.356-0.36,0.94,0,1.299l7.143,7.144l-7.143,7.141
	c-0.36,0.357-0.36,0.939,0,1.297l1.949,1.947c0.359,0.363,0.939,0.363,1.299,0l7.142-7.141l7.145,7.141
	c0.356,0.363,0.937,0.363,1.296,0l1.949-1.947c0.357-0.357,0.357-0.939,0-1.297L30.248,26.49z"/>
</svg>
